<svg width="100%" viewBox="0 0 1127 383" fill="none" xmlns="http://www.w3.org/2000/svg">
    <circle  cx="548.852" cy="76.5" r="76.5" fill="#C4C4C4"/>
    <circle  cx="76.5" cy="306.5" r="76.5" fill="#C4C4C4"/>
    <circle  cx="262.5" cy="306.5" r="76.5" fill="#C4C4C4"/>
    <circle  cx="477.5" cy="306.5" r="76.5" fill="#C4C4C4"/>
    <circle  cx="668.5" cy="306.5" r="76.5" fill="#C4C4C4"/>
    <circle  cx="859.5" cy="306.5" r="76.5" fill="#C4C4C4"/>
    <circle  cx="1050.5" cy="306.5" r="76.5" fill="#C4C4C4"/>
    <path d="M308.003 230.107C308.062 231.21 309.004 232.056 310.107 231.997L328.081 231.037C329.184 230.978 330.03 230.036 329.972 228.933C329.913 227.83 328.971 226.983 327.868 227.042L311.89 227.896L311.037 211.919C310.978 210.816 310.036 209.97 308.933 210.028C307.83 210.087 306.983 211.029 307.042 212.132L308.003 230.107ZM370.512 159.663L308.512 228.663L311.488 231.337L373.488 162.337L370.512 159.663Z" fill="#A4A4A4"/>
    <path d="M470.619 221.982C471.401 222.762 472.667 222.762 473.448 221.98L486.169 209.245C486.949 208.464 486.948 207.198 486.167 206.417C485.386 205.636 484.119 205.637 483.339 206.418L472.031 217.738L460.711 206.431C459.93 205.65 458.663 205.651 457.883 206.432C457.102 207.214 457.103 208.48 457.884 209.261L470.619 221.982ZM470 161.001L470.033 220.568L474.033 220.566L474 160.999L470 161.001Z" fill="#A4A4A4"/>
    <path d="M667.619 221.982C668.401 222.762 669.667 222.762 670.448 221.98L683.169 209.245C683.949 208.464 683.948 207.198 683.167 206.417C682.386 205.636 681.119 205.637 680.339 206.418L669.031 217.738L657.711 206.431C656.93 205.65 655.663 205.651 654.883 206.432C654.102 207.214 654.103 208.48 654.884 209.261L667.619 221.982ZM667 161.001L667.033 220.568L671.033 220.566L671 160.999L667 161.001Z" fill="#A4A4A4"/>
    <path d="M854.596 214.486C855.656 214.175 856.263 213.064 855.952 212.004L850.884 194.732C850.573 193.672 849.462 193.065 848.402 193.376C847.342 193.687 846.735 194.798 847.046 195.858L851.55 211.211L836.198 215.715C835.138 216.026 834.531 217.137 834.842 218.197C835.152 219.257 836.264 219.864 837.324 219.553L854.596 214.486ZM744.041 154.755L853.074 214.322L854.991 210.812L745.959 151.245L744.041 154.755Z" fill="#A4A4A4"/>
    <path d="M1007.6 209.486C1008.66 209.175 1009.26 208.064 1008.95 207.004L1003.88 189.732C1003.57 188.672 1002.46 188.065 1001.4 188.376C1000.34 188.687 999.735 189.798 1000.05 190.858L1004.55 206.211L989.198 210.715C988.138 211.026 987.531 212.137 987.842 213.197C988.152 214.257 989.264 214.864 990.324 214.553L1007.6 209.486ZM897.041 149.755L1006.07 209.322L1007.99 205.812L898.959 146.245L897.041 149.755Z" fill="#A4A4A4"/>
    <path d="M130.068 207.604C129.782 208.671 130.416 209.767 131.482 210.053L148.869 214.712C149.936 214.998 151.033 214.365 151.319 213.298C151.605 212.231 150.971 211.134 149.904 210.848L134.45 206.707L138.591 191.252C138.877 190.186 138.243 189.089 137.177 188.803C136.11 188.517 135.013 189.15 134.727 190.217L130.068 207.604ZM238.598 144.268L131 206.389L133 209.854L240.598 147.732L238.598 144.268Z" fill="#A4A4A4"/>
</svg>
