<svg width="339" height="342" viewBox="0 0 339 342" fill="none" xmlns="http://www.w3.org/2000/svg">
    <circle cx="159.5" cy="76.5" r="76.5" fill="#C4C4C4"/>
    <circle cx="76.5" cy="265.5" r="76.5" fill="#C4C4C4"/>
    <circle cx="262.5" cy="265.5" r="76.5" fill="#C4C4C4"/>
    <path d="M78.2689 217.362C78.5952 218.123 79.477 218.476 80.2385 218.15L92.6474 212.833C93.4088 212.507 93.7616 211.625 93.4354 210.863C93.1091 210.102 92.2273 209.749 91.4658 210.075L80.4357 214.801L75.7096 203.771C75.3833 203.01 74.5016 202.657 73.7401 202.983C72.9786 203.31 72.6258 204.191 72.9521 204.953L78.2689 217.362ZM122.46 105.729L78.255 216.214L81.0404 217.328L125.245 106.843L122.46 105.729Z" fill="black"/>
    <path d="M247.097 214.65C247.879 214.924 248.734 214.512 249.008 213.73L253.472 200.989C253.746 200.208 253.334 199.352 252.552 199.078C251.77 198.804 250.914 199.216 250.64 199.998L246.673 211.323L235.348 207.355C234.566 207.081 233.71 207.493 233.436 208.275C233.162 209.057 233.574 209.913 234.356 210.187L247.097 214.65ZM194.648 106.65L246.241 213.885L248.944 212.584L197.352 105.35L194.648 106.65Z" fill="black"/>
</svg>
